<mxfile host="app.diagrams.net" modified="2022-10-07T03:47:21.954Z" agent="5.0 (Windows NT 10.0; Win64; x64) AppleWebKit/537.36 (KHTML, like Gecko) Chrome/104.0.5112.102 Safari/537.36 OPR/90.0.4480.117 (Edition std-1)" etag="Dui1azcusFcP2_BnVxlM" version="20.4.0" type="github">
  <diagram id="R2lEEEUBdFMjLlhIrx00" name="Page-1">
    <mxGraphModel dx="789" dy="437" grid="1" gridSize="10" guides="1" tooltips="1" connect="1" arrows="1" fold="1" page="1" pageScale="1" pageWidth="850" pageHeight="1100" math="0" shadow="0" extFonts="Permanent Marker^https://fonts.googleapis.com/css?family=Permanent+Marker">
      <root>
        <mxCell id="0" />
        <mxCell id="1" parent="0" />
        <mxCell id="ytXcurqrQ2AjGIGpjuln-14" style="edgeStyle=none;rounded=0;orthogonalLoop=1;jettySize=auto;html=1;" edge="1" parent="1" source="ytXcurqrQ2AjGIGpjuln-1" target="ytXcurqrQ2AjGIGpjuln-11">
          <mxGeometry relative="1" as="geometry" />
        </mxCell>
        <mxCell id="ytXcurqrQ2AjGIGpjuln-1" value="Usuario" style="rounded=0;whiteSpace=wrap;html=1;" vertex="1" parent="1">
          <mxGeometry x="120" y="160" width="120" height="60" as="geometry" />
        </mxCell>
        <mxCell id="ytXcurqrQ2AjGIGpjuln-2" value="Portfolio" style="rounded=0;whiteSpace=wrap;html=1;" vertex="1" parent="1">
          <mxGeometry x="400" y="160" width="120" height="60" as="geometry" />
        </mxCell>
        <mxCell id="ytXcurqrQ2AjGIGpjuln-7" style="edgeStyle=none;rounded=0;orthogonalLoop=1;jettySize=auto;html=1;" edge="1" parent="1" source="ytXcurqrQ2AjGIGpjuln-3">
          <mxGeometry relative="1" as="geometry">
            <mxPoint x="180" y="220" as="targetPoint" />
          </mxGeometry>
        </mxCell>
        <mxCell id="ytXcurqrQ2AjGIGpjuln-3" value="Correo" style="ellipse;whiteSpace=wrap;html=1;" vertex="1" parent="1">
          <mxGeometry x="50" y="240" width="80" height="60" as="geometry" />
        </mxCell>
        <mxCell id="ytXcurqrQ2AjGIGpjuln-6" style="rounded=0;orthogonalLoop=1;jettySize=auto;html=1;entryX=0.5;entryY=1;entryDx=0;entryDy=0;" edge="1" parent="1" source="ytXcurqrQ2AjGIGpjuln-4" target="ytXcurqrQ2AjGIGpjuln-1">
          <mxGeometry relative="1" as="geometry" />
        </mxCell>
        <mxCell id="ytXcurqrQ2AjGIGpjuln-4" value="Contrasenia" style="ellipse;whiteSpace=wrap;html=1;" vertex="1" parent="1">
          <mxGeometry x="220" y="240" width="80" height="60" as="geometry" />
        </mxCell>
        <mxCell id="ytXcurqrQ2AjGIGpjuln-10" style="edgeStyle=none;rounded=0;orthogonalLoop=1;jettySize=auto;html=1;entryX=0.5;entryY=1;entryDx=0;entryDy=0;" edge="1" parent="1" source="ytXcurqrQ2AjGIGpjuln-8" target="ytXcurqrQ2AjGIGpjuln-2">
          <mxGeometry relative="1" as="geometry" />
        </mxCell>
        <mxCell id="ytXcurqrQ2AjGIGpjuln-8" value="Login" style="ellipse;whiteSpace=wrap;html=1;" vertex="1" parent="1">
          <mxGeometry x="480" y="240" width="80" height="60" as="geometry" />
        </mxCell>
        <mxCell id="ytXcurqrQ2AjGIGpjuln-15" style="edgeStyle=none;rounded=0;orthogonalLoop=1;jettySize=auto;html=1;entryX=0;entryY=0.5;entryDx=0;entryDy=0;" edge="1" parent="1" source="ytXcurqrQ2AjGIGpjuln-11" target="ytXcurqrQ2AjGIGpjuln-2">
          <mxGeometry relative="1" as="geometry" />
        </mxCell>
        <mxCell id="ytXcurqrQ2AjGIGpjuln-11" value="registrarse&lt;br&gt;en" style="rhombus;whiteSpace=wrap;html=1;" vertex="1" parent="1">
          <mxGeometry x="290" y="160" width="80" height="60" as="geometry" />
        </mxCell>
        <mxCell id="ytXcurqrQ2AjGIGpjuln-12" style="edgeStyle=none;rounded=0;orthogonalLoop=1;jettySize=auto;html=1;exitX=0.5;exitY=0;exitDx=0;exitDy=0;" edge="1" parent="1" source="ytXcurqrQ2AjGIGpjuln-11" target="ytXcurqrQ2AjGIGpjuln-11">
          <mxGeometry relative="1" as="geometry" />
        </mxCell>
      </root>
    </mxGraphModel>
  </diagram>
</mxfile>
